<?xml version="1.0" standalone="no"?>
<!DOCTYPE svg PUBLIC "-//W3C//DTD SVG 20010904//EN"
 "http://www.w3.org/TR/2001/REC-SVG-20010904/DTD/svg10.dtd">
<svg version="1.0" xmlns="http://www.w3.org/2000/svg"
 width="700.000000pt" height="700.000000pt" viewBox="0 0 700.000000 700.000000"
 preserveAspectRatio="xMidYMid meet">
<metadata>
Created by potrace 1.14, written by Peter Selinger 2001-2017
</metadata>
<g transform="translate(0.000000,700.000000) scale(0.100000,-0.100000)"
fill="#000000" stroke="none">
<path d="M3300 6397 c-138 -35 -160 -48 -232 -135 -71 -85 -85 -118 -125 -306
-8 -38 -10 -40 -68 -56 -94 -26 -181 -75 -210 -117 -29 -44 -34 -106 -10 -141
9 -12 76 -53 150 -93 74 -39 137 -74 140 -79 3 -5 22 -14 43 -20 20 -6 42 -13
49 -15 9 -3 8 -14 -4 -42 -9 -21 -22 -63 -28 -93 -11 -54 -13 -56 -95 -112
-102 -71 -233 -191 -326 -300 -38 -44 -79 -92 -91 -105 -12 -12 -21 -23 -19
-23 2 0 -20 -43 -49 -95 -44 -79 -55 -110 -66 -183 -7 -48 -13 -125 -14 -172
0 -77 5 -97 47 -213 26 -70 64 -157 83 -195 26 -49 39 -92 50 -162 8 -52 23
-120 34 -151 34 -100 53 -284 49 -494 l-3 -190 -39 -79 c-65 -130 -63 -225 10
-352 25 -43 63 -124 86 -179 52 -129 58 -193 29 -334 -16 -75 -20 -120 -15
-160 7 -64 35 -136 65 -168 20 -20 21 -30 16 -165 -5 -143 -5 -143 -58 -292
l-54 -148 -55 -19 c-45 -16 -79 -20 -185 -18 -123 2 -133 0 -188 -26 -52 -24
-76 -28 -205 -35 -158 -9 -186 -16 -326 -86 -79 -40 -153 -88 -210 -137 l-40
-34 130 -85 c490 -323 986 -500 1594 -569 157 -18 557 -15 725 5 499 61 921
198 1348 438 48 27 87 53 87 57 0 9 -104 41 -220 68 -61 15 -127 18 -360 19
-281 1 -287 2 -404 31 l-119 30 -26 54 c-40 83 -35 179 19 389 l42 165 0 275
c0 165 -5 305 -12 350 -7 41 -15 124 -17 183 -5 102 -3 111 22 163 24 49 34
58 93 87 65 32 68 36 117 125 28 50 63 104 78 120 16 16 34 49 42 73 7 24 25
75 40 114 32 83 35 152 17 340 -10 98 -19 142 -37 180 -33 68 -81 237 -104
366 -10 58 -33 141 -50 184 -22 53 -37 117 -47 190 -17 132 -61 373 -79 435
-24 83 -77 224 -105 280 -35 68 -124 155 -211 203 -36 20 -74 46 -84 57 -18
20 -18 23 -1 90 19 72 16 125 -9 173 -11 22 -11 32 1 66 13 37 24 118 40 295
6 67 8 71 61 127 52 55 58 58 126 69 40 7 78 13 86 13 22 3 35 31 27 60 -7 29
-19 33 -161 61 -65 13 -84 21 -102 43 -13 16 -23 37 -23 49 0 38 -42 143 -80
203 -52 79 -114 123 -214 151 -131 36 -219 35 -366 -3z m207 -4418 c27 -64 34
-99 52 -264 26 -247 28 -280 17 -470 -6 -119 -13 -169 -26 -195 -10 -19 -22
-64 -28 -99 -14 -79 -25 -93 -71 -89 -58 5 -60 21 -46 262 8 114 16 229 19
255 4 25 11 134 16 242 9 167 8 202 -5 238 -8 24 -15 58 -15 75 0 41 31 127
44 123 6 -2 25 -37 43 -78z"/>
</g>
</svg>
